<svg width="164" height="49" viewBox="0 0 164 49" fill="none" xmlns="http://www.w3.org/2000/svg">
<path d="M8.532 38V16.652H0.36V12.08H21.6V16.652H13.428V38H8.532ZM24.8527 15.86V11.54H29.7487V15.86H24.8527ZM24.8527 38V18.56H29.7487V38H24.8527ZM43.713 38.54C41.697 38.54 39.969 38.09 38.529 37.19C37.089 36.29 35.985 35.066 35.217 33.518C34.449 31.97 34.065 30.224 34.065 28.28C34.065 26.312 34.461 24.554 35.253 23.006C36.057 21.458 37.185 20.24 38.637 19.352C40.089 18.464 41.805 18.02 43.785 18.02C46.077 18.02 47.997 18.602 49.545 19.766C51.105 20.918 52.101 22.496 52.533 24.5L47.637 25.796C47.349 24.788 46.845 24.002 46.125 23.438C45.417 22.874 44.613 22.592 43.713 22.592C42.681 22.592 41.835 22.844 41.175 23.348C40.515 23.84 40.029 24.518 39.717 25.382C39.405 26.234 39.249 27.2 39.249 28.28C39.249 29.972 39.621 31.346 40.365 32.402C41.121 33.446 42.237 33.968 43.713 33.968C44.817 33.968 45.657 33.716 46.233 33.212C46.809 32.708 47.241 31.988 47.529 31.052L52.533 32.096C51.981 34.16 50.937 35.75 49.401 36.866C47.865 37.982 45.969 38.54 43.713 38.54ZM56.0973 38L56.1333 12.08H61.1013V27.92L67.6893 18.56H73.7373L66.7173 28.28L74.2053 38H67.8333L61.1013 28.64V38H56.0973ZM84.681 38.54C82.689 38.54 80.931 38.114 79.407 37.262C77.895 36.398 76.707 35.216 75.843 33.716C74.991 32.204 74.565 30.476 74.565 28.532C74.565 26.408 74.985 24.56 75.825 22.988C76.665 21.416 77.823 20.198 79.299 19.334C80.775 18.458 82.473 18.02 84.393 18.02C86.433 18.02 88.167 18.5 89.595 19.46C91.023 20.42 92.079 21.77 92.763 23.51C93.447 25.25 93.687 27.296 93.483 29.648H88.641V27.848C88.641 25.868 88.323 24.446 87.687 23.582C87.063 22.706 86.037 22.268 84.609 22.268C82.941 22.268 81.711 22.778 80.919 23.798C80.139 24.806 79.749 26.3 79.749 28.28C79.749 30.092 80.139 31.496 80.919 32.492C81.711 33.476 82.869 33.968 84.393 33.968C85.353 33.968 86.175 33.758 86.859 33.338C87.543 32.918 88.065 32.312 88.425 31.52L93.321 32.924C92.589 34.7 91.431 36.08 89.847 37.064C88.275 38.048 86.553 38.54 84.681 38.54ZM78.237 29.648V26.012H91.125V29.648H78.237ZM109.211 38C107.867 38.252 106.547 38.36 105.251 38.324C103.967 38.3 102.815 38.078 101.795 37.658C100.787 37.226 100.019 36.536 99.4913 35.588C99.0113 34.7 98.7593 33.8 98.7353 32.888C98.7113 31.964 98.6993 30.92 98.6993 29.756V13.16H103.595V29.468C103.595 30.224 103.601 30.908 103.613 31.52C103.637 32.12 103.763 32.6 103.991 32.96C104.423 33.644 105.113 34.016 106.061 34.076C107.009 34.136 108.059 34.088 109.211 33.932V38ZM95.3873 22.34V18.56H109.211V22.34H95.3873ZM128.318 38V12.08H133.214V38H128.318ZM149.734 38.54C147.142 38.54 144.904 37.976 143.02 36.848C141.148 35.72 139.702 34.142 138.682 32.114C137.674 30.086 137.17 27.728 137.17 25.04C137.17 22.352 137.674 19.994 138.682 17.966C139.702 15.938 141.148 14.36 143.02 13.232C144.904 12.104 147.142 11.54 149.734 11.54C152.326 11.54 154.558 12.104 156.43 13.232C158.314 14.36 159.76 15.938 160.768 17.966C161.788 19.994 162.298 22.352 162.298 25.04C162.298 27.728 161.788 30.086 160.768 32.114C159.76 34.142 158.314 35.72 156.43 36.848C154.558 37.976 152.326 38.54 149.734 38.54ZM149.734 33.932C151.378 33.956 152.746 33.602 153.838 32.87C154.93 32.138 155.746 31.1 156.286 29.756C156.838 28.412 157.114 26.84 157.114 25.04C157.114 23.24 156.838 21.68 156.286 20.36C155.746 19.04 154.93 18.014 153.838 17.282C152.746 16.55 151.378 16.172 149.734 16.148C148.09 16.124 146.722 16.478 145.63 17.21C144.538 17.942 143.716 18.98 143.164 20.324C142.624 21.668 142.354 23.24 142.354 25.04C142.354 26.84 142.624 28.4 143.164 29.72C143.716 31.04 144.538 32.066 145.63 32.798C146.722 33.53 148.09 33.908 149.734 33.932Z" fill="black"/>
<circle cx="119" cy="28" r="6" fill="#0A68FF"/>
</svg>
